<mxfile host="app.diagrams.net" modified="2020-11-18T04:57:58.939Z" agent="5.0 (Windows NT 10.0; Win64; x64) AppleWebKit/537.36 (KHTML, like Gecko) Chrome/86.0.4240.198 Safari/537.36" etag="YzNqAWH-jAQElIwsY03r" version="13.9.9" type="github">
  <diagram id="h0yh4uh9Ou2qqzZrw4VW" name="Page-1">
    <mxGraphModel dx="1038" dy="491" grid="1" gridSize="10" guides="1" tooltips="1" connect="1" arrows="1" fold="1" page="1" pageScale="1" pageWidth="850" pageHeight="1100" math="0" shadow="0">
      <root>
        <mxCell id="0" />
        <mxCell id="1" parent="0" />
        <mxCell id="CvozXVyJyX2lD8ZnYhm1-18" style="edgeStyle=orthogonalEdgeStyle;rounded=0;orthogonalLoop=1;jettySize=auto;html=1;entryX=0.5;entryY=0;entryDx=0;entryDy=0;" parent="1" source="fXs1r2CifXFu1rM4M8Fj-1" target="VSlNwRkXBHqi9DPdbiYh-1" edge="1">
          <mxGeometry relative="1" as="geometry">
            <mxPoint x="245" y="120" as="targetPoint" />
          </mxGeometry>
        </mxCell>
        <mxCell id="fXs1r2CifXFu1rM4M8Fj-1" value="" style="ellipse;whiteSpace=wrap;html=1;aspect=fixed;fillColor=#000000;" parent="1" vertex="1">
          <mxGeometry x="221.25" y="31.25" width="40" height="40" as="geometry" />
        </mxCell>
        <mxCell id="OsMlclKe9sGLii8gvVtk-3" value="Yes" style="edgeStyle=orthogonalEdgeStyle;rounded=0;orthogonalLoop=1;jettySize=auto;html=1;entryX=0.5;entryY=0;entryDx=0;entryDy=0;" parent="1" edge="1">
          <mxGeometry relative="1" as="geometry">
            <mxPoint x="665" y="450" as="targetPoint" />
          </mxGeometry>
        </mxCell>
        <mxCell id="U1gIK-Ml1kVYt0ZC6_mx-13" style="edgeStyle=orthogonalEdgeStyle;rounded=0;orthogonalLoop=1;jettySize=auto;html=1;entryX=0.5;entryY=0;entryDx=0;entryDy=0;exitX=0.5;exitY=1;exitDx=0;exitDy=0;" parent="1" edge="1">
          <mxGeometry relative="1" as="geometry">
            <Array as="points" />
            <mxPoint x="220" y="420" as="sourcePoint" />
          </mxGeometry>
        </mxCell>
        <mxCell id="CvozXVyJyX2lD8ZnYhm1-27" value="" style="ellipse;html=1;shape=endState;fillColor=#000000;strokeColor=#ff0000;" parent="1" vertex="1">
          <mxGeometry x="226.25" y="430" width="30" height="30" as="geometry" />
        </mxCell>
        <mxCell id="VSlNwRkXBHqi9DPdbiYh-8" value="Yes" style="edgeStyle=orthogonalEdgeStyle;rounded=0;orthogonalLoop=1;jettySize=auto;html=1;exitX=0.5;exitY=1;exitDx=0;exitDy=0;entryX=0.5;entryY=0;entryDx=0;entryDy=0;" edge="1" parent="1" source="CvozXVyJyX2lD8ZnYhm1-31" target="CvozXVyJyX2lD8ZnYhm1-27">
          <mxGeometry relative="1" as="geometry" />
        </mxCell>
        <mxCell id="VSlNwRkXBHqi9DPdbiYh-9" value="No" style="edgeStyle=orthogonalEdgeStyle;rounded=0;orthogonalLoop=1;jettySize=auto;html=1;entryX=0;entryY=0.5;entryDx=0;entryDy=0;" edge="1" parent="1" source="CvozXVyJyX2lD8ZnYhm1-31" target="CvozXVyJyX2lD8ZnYhm1-34">
          <mxGeometry relative="1" as="geometry" />
        </mxCell>
        <mxCell id="CvozXVyJyX2lD8ZnYhm1-31" value="Account in compliance?" style="rhombus;whiteSpace=wrap;html=1;" parent="1" vertex="1">
          <mxGeometry x="183.93" y="280" width="114.63" height="70" as="geometry" />
        </mxCell>
        <mxCell id="CvozXVyJyX2lD8ZnYhm1-36" style="edgeStyle=orthogonalEdgeStyle;rounded=0;orthogonalLoop=1;jettySize=auto;html=1;entryX=1;entryY=0.5;entryDx=0;entryDy=0;exitX=0.5;exitY=1;exitDx=0;exitDy=0;" parent="1" source="VSlNwRkXBHqi9DPdbiYh-6" target="CvozXVyJyX2lD8ZnYhm1-27" edge="1">
          <mxGeometry relative="1" as="geometry" />
        </mxCell>
        <mxCell id="CvozXVyJyX2lD8ZnYhm1-34" value="Apply restrictions" style="rounded=1;whiteSpace=wrap;html=1;fillColor=#FFFFFF;" parent="1" vertex="1">
          <mxGeometry x="380" y="302.5" width="200" height="25" as="geometry" />
        </mxCell>
        <mxCell id="VSlNwRkXBHqi9DPdbiYh-3" style="edgeStyle=orthogonalEdgeStyle;rounded=0;orthogonalLoop=1;jettySize=auto;html=1;entryX=0.5;entryY=0;entryDx=0;entryDy=0;" edge="1" parent="1" source="VSlNwRkXBHqi9DPdbiYh-4" target="CvozXVyJyX2lD8ZnYhm1-31">
          <mxGeometry relative="1" as="geometry">
            <mxPoint x="241.25" y="280" as="targetPoint" />
          </mxGeometry>
        </mxCell>
        <mxCell id="VSlNwRkXBHqi9DPdbiYh-1" value="Get latest quotes for positions" style="rounded=1;whiteSpace=wrap;html=1;fillColor=#FFFFFF;" vertex="1" parent="1">
          <mxGeometry x="141.25" y="120" width="200" height="25" as="geometry" />
        </mxCell>
        <mxCell id="VSlNwRkXBHqi9DPdbiYh-4" value="Update margin &lt;br&gt;requirements&amp;nbsp;and equity" style="rounded=1;whiteSpace=wrap;html=1;fillColor=#FFFFFF;" vertex="1" parent="1">
          <mxGeometry x="141.25" y="190" width="200" height="40" as="geometry" />
        </mxCell>
        <mxCell id="VSlNwRkXBHqi9DPdbiYh-5" style="edgeStyle=orthogonalEdgeStyle;rounded=0;orthogonalLoop=1;jettySize=auto;html=1;entryX=0.5;entryY=0;entryDx=0;entryDy=0;" edge="1" parent="1" source="VSlNwRkXBHqi9DPdbiYh-1" target="VSlNwRkXBHqi9DPdbiYh-4">
          <mxGeometry relative="1" as="geometry">
            <mxPoint x="241.25" y="145" as="sourcePoint" />
            <mxPoint x="241.25" y="260" as="targetPoint" />
          </mxGeometry>
        </mxCell>
        <mxCell id="VSlNwRkXBHqi9DPdbiYh-6" value="Send notifications" style="rounded=1;whiteSpace=wrap;html=1;fillColor=#FFFFFF;" vertex="1" parent="1">
          <mxGeometry x="380" y="370" width="200" height="25" as="geometry" />
        </mxCell>
        <mxCell id="VSlNwRkXBHqi9DPdbiYh-7" style="edgeStyle=orthogonalEdgeStyle;rounded=0;orthogonalLoop=1;jettySize=auto;html=1;entryX=0.5;entryY=0;entryDx=0;entryDy=0;exitX=0.5;exitY=1;exitDx=0;exitDy=0;" edge="1" parent="1" source="CvozXVyJyX2lD8ZnYhm1-34" target="VSlNwRkXBHqi9DPdbiYh-6">
          <mxGeometry relative="1" as="geometry">
            <mxPoint x="480" y="327.5" as="sourcePoint" />
            <mxPoint x="256.25" y="445" as="targetPoint" />
          </mxGeometry>
        </mxCell>
      </root>
    </mxGraphModel>
  </diagram>
</mxfile>
